Coordinates
version=1
nRows=9
nColumns=24
inDegrees=yes

Units are S.I. units (second, meters, Newtons, ...)
Angles are in degrees.

endheader
time	pelvis_tilt	pelvis_list	pelvis_rotation	pelvis_tx	pelvis_ty	pelvis_tz	hip_flexion_r	hip_adduction_r	hip_rotation_r	knee_angle_r	ankle_angle_r	subtalar_angle_r	mtp_angle_r	hip_flexion_l	hip_adduction_l	hip_rotation_l	knee_angle_l	ankle_angle_l	subtalar_angle_l	mtp_angle_l	lumbar_extension	lumbar_bending	lumbar_rotation
      1.52533333	     -0.90472033	      6.79101119	      0.86421094	      0.51781485	      0.99034163	      0.31757668	     18.46085751	     -8.94711336	     -0.03958364	    -66.09711785	      4.25476631	     -8.54050617	      3.32817194	      9.58659833	     13.00305491	      4.40008753	    -13.85842372	      3.58223332	    -16.11497740	     -1.18892154	      2.09270307	     -5.12865697	      5.57719018
      1.52950000	     -0.83694590	      6.69715598	      1.00999247	      0.52262068	      0.99102413	      0.31732159	     18.97574176	     -8.82814344	     -0.00909133	    -65.67540433	      4.74769474	     -8.62931747	      3.30152568	      9.00100534	     12.91359215	      4.62364348	    -13.52111072	      3.66117286	    -16.05202478	     -1.18621947	      1.98597059	     -5.01743766	      5.46903684
      1.53366667	     -0.74312405	      6.61121480	      1.15132895	      0.52745551	      0.99172251	      0.31707766	     19.44281637	     -8.71788499	      0.02138038	    -65.20274183	      5.22021286	     -8.71883930	      3.27304979	      8.37768200	     12.82605251	      4.83246567	    -13.16324398	      3.74522207	    -15.99634566	     -1.18375420	      1.86451062	     -4.92838204	      5.33133217
      1.53783333	     -0.62091251	      6.54038463	      1.27756529	      0.53227162	      0.99241991	      0.31684641	     19.87308134	     -8.62495789	      0.05971262	    -64.69049836	      5.62150953	     -8.80171409	      3.20243744	      7.71337827	     12.75295080	      5.07015252	    -12.77781949	      3.81209156	    -15.99357835	     -1.18280777	      1.69006482	     -4.85699828	      5.09069773
      1.54200000	     -0.56255889	      6.44776738	      1.43146388	      0.53705378	      0.99298166	      0.31660276	     20.35648979	     -8.51082810	      0.07770647	    -64.14171821	      6.05630510	     -8.85062339	      3.17187701	      7.15306898	     12.65225843	      5.27855016	    -12.46092431	      3.90195199	    -15.91556226	     -1.18003511	      1.59920802	     -4.75170731	      4.98711811
      1.54616667	     -0.44335455	      6.38014657	      1.56592214	      0.54184612	      0.99359135	      0.31637832	     20.76091043	     -8.41990187	      0.11479027	    -63.55003068	      6.42870920	     -8.90769491	      3.08458979	      6.50603189	     12.57394428	      5.50334506	    -12.09751276	      3.97904054	    -15.89183800	     -1.17896596	      1.42525356	     -4.69286592	      4.74072125
      1.55033333	     -0.35818367	      6.29125490	      1.71986524	      0.54661211	      0.99413341	      0.31614681	     21.18250004	     -8.30927872	      0.13157233	    -62.91354383	      6.82583725	     -8.94908760	      3.03387301	      5.92301499	     12.46950672	      5.71352533	    -11.78669780	      4.07401690	    -15.81927933	     -1.17647953	      1.29595586	     -4.60563141	      4.61314988
      1.55450000	     -0.26104081	      6.22577961	      1.85642745	      0.55138075	      0.99462037	      0.31591417	     21.58983269	     -8.22932859	      0.15462879	    -62.25672749	      7.15976766	     -8.99705166	      2.94770589	      5.31529135	     12.38738671	      5.91775397	    -11.44536345	      4.16970056	    -15.77354206	     -1.17446920	      1.14615369	     -4.52882813	      4.39750583
      1.55866667	     -0.20470413	      6.15037130	      2.01515959	      0.55611852	      0.99502574	      0.31568387	     22.02035168	     -8.13882081	      0.16572827	    -61.55610442	      7.50599888	     -9.03780308	      2.89303961	      4.77837411	     12.29228979	      6.12164988	    -11.15627885	      4.26545494	    -15.70285118	     -1.17184314	      1.05016675	     -4.45451408	      4.26792440
